# xmcd
#
# Track frame offsets: 
#        150
#        13713
#        34665
#        45088
#        58570
#        70972
#        90479
#        113844
#        117201
#        136597
#        147207
#        164535
#        172432
#        186065
#        196264
#
# Disc length: 2809 seconds
#
# Revision: 0
# Processed by: cddbd v1.5.2PL0 Copyright (c) Steve Scherf et al.
# Submitted via: ExactAudioCopyFreeDBPlugin 1.0
#
DISCID=c70af70f
DTITLE=As The Crow Flies - Miles To Go
DYEAR=2003
DGENRE=Bluegrass
TTITLE0=Miles To Go
TTITLE1=Kootenay Bridge
TTITLE2=Mango Muse
TTITLE3=Road To Glory
TTITLE4=Snow
TTITLE5=Golden Bells
TTITLE6=Wayfarin' Stranger
TTITLE7=Interlude
TTITLE8=Stopping By The Woods
TTITLE9=Salmon Run
TTITLE10=Annabelle
TTITLE11=Pickle Song
TTITLE12=Subject To Change
TTITLE13=Birthday One
TTITLE14=Evening Song
EXTD=
EXTT0=
EXTT1=
EXTT2=
EXTT3=
EXTT4=
EXTT5=
EXTT6=
EXTT7=
EXTT8=
EXTT9=
EXTT10=
EXTT11=
EXTT12=
EXTT13=
EXTT14=
PLAYORDER=
